<svg aria-hidden="true" style="position:absolute;width:0;height:0;overflow:hidden" xmlns="http://www.w3.org/2000/svg"><defs><symbol id="icon-Vector" viewBox="0 0 17 32"><path d="M14.446 7.228v16.419c0 3.155-2.48 5.711-5.541 5.711s-5.541-2.556-5.541-5.711V5.801c0-1.97 1.551-3.569 3.463-3.569s3.463 1.599 3.463 3.569v14.991c0 .785-.623 1.428-1.385 1.428s-1.385-.642-1.385-1.428V7.229H5.442v13.563c0 1.97 1.551 3.569 3.463 3.569s3.463-1.599 3.463-3.569V5.801c0-3.155-2.48-5.711-5.541-5.711S1.286 2.646 1.286 5.801v17.846c0 4.34 3.408 7.852 7.619 7.852s7.619-3.512 7.619-7.852V7.228h-2.078z"/></symbol><symbol id="icon-no" viewBox="0 0 32 32"><path fill="#e8184a" style="fill:var(--color1, #e8184a)" d="M16 4.923c-3.4 0-6.154 2.754-6.154 6.154S12.6 17.231 16 17.231s6.154-2.754 6.154-6.154S19.4 4.923 16 4.923zm3.077 8.36-.871.871L16 11.948l-2.206 2.206-.871-.871 2.206-2.206-2.206-2.206.871-.871L16 10.206 18.206 8l.871.871-2.206 2.206 2.206 2.206z"/><path fill="#fff" style="fill:var(--color2, #fff)" d="m18.206 14.154.871-.871-2.206-2.206 2.206-2.206L18.206 8 16 10.206 13.794 8l-.871.871 2.206 2.206-2.206 2.206.871.871L16 11.948l2.206 2.206z"/></symbol><symbol id="icon-yes" viewBox="0 0 32 32"><path fill="#18e8a4" style="fill:var(--color3, #18e8a4)" d="M16 4.923c-3.397 0-6.154 2.757-6.154 6.154s2.757 6.154 6.154 6.154 6.154-2.757 6.154-6.154S19.397 4.923 16 4.923zm-1.231 9.231-3.077-3.077.868-.868 2.209 2.203 4.671-4.671.868.874-5.538 5.538z"/><path fill="#fff" style="fill:var(--color2, #fff)" d="m11.692 11.077 3.077 3.077 5.538-5.538-.868-.874-4.671 4.671-2.209-2.203-.868.868z"/></symbol></defs></svg>